<svg xmlns="http://www.w3.org/2000/svg" xmlns:xlink="http://www.w3.org/1999/xlink" width="500" zoomAndPan="magnify" viewBox="0 0 375 374.999991" height="500" preserveAspectRatio="xMidYMid meet" version="1.0"><defs><clipPath id="449109a04d"><path d="M 5.316406 189 L 50 189 L 50 202 L 5.316406 202 Z M 5.316406 189 " clip-rule="nonzero"/></clipPath><clipPath id="5999c95c6f"><path d="M 71 297 L 99 297 L 99 339.253906 L 71 339.253906 Z M 71 297 " clip-rule="nonzero"/></clipPath></defs><path fill="#2dabe3" d="M 136.027344 101.507812 C 143.484375 92.90625 149.90625 83.058594 158.570312 75.914062 C 207.527344 35.527344 278.042969 51.375 306.132812 108.292969 C 308.195312 112.484375 311.964844 116.84375 316.058594 118.859375 C 358.988281 140.058594 380.21875 180.996094 371.195312 226.238281 C 362.757812 268.503906 326.394531 299.167969 280.285156 301.53125 C 262.082031 302.464844 243.609375 302.351562 225.523438 300.308594 C 172.296875 294.296875 137.152344 250.800781 141.003906 197.308594 C 141.875 185.230469 149.96875 176.773438 160.015625 177.425781 C 170.050781 178.074219 176.992188 185.890625 175.5625 198.5625 C 171.617188 233.492188 198.246094 269.183594 244.296875 266.996094 C 258.886719 266.300781 273.683594 267.308594 288.046875 265.191406 C 316.699219 260.964844 337.394531 236.804688 338.523438 208.503906 C 339.625 180.828125 320.117188 154.6875 292.097656 148.328125 C 282.792969 146.214844 279.640625 141.964844 277.445312 133.160156 C 268.132812 95.835938 225.789062 77.105469 192.164062 95.628906 C 183.019531 100.660156 174.347656 102.832031 164.199219 102.410156 C 155.566406 102.050781 146.878906 103.160156 138.214844 103.613281 C 137.480469 102.910156 136.753906 102.207031 136.027344 101.507812 Z M 136.027344 101.507812 " fill-opacity="1" fill-rule="nonzero"/><path fill="#fbc927" d="M 183.035156 298.113281 C 124.480469 314.242188 65.097656 264.960938 67.667969 203.570312 C 69.777344 153.066406 108.183594 113.554688 157.386719 111.265625 C 206.679688 108.980469 249.289062 144.171875 256.460938 193.796875 C 257.753906 202.714844 257.335938 212.144531 256.042969 221.097656 C 254.382812 232.589844 246.558594 237.808594 235.875 236.398438 C 226.5625 235.175781 221.222656 228.882812 222.074219 217.449219 C 223.71875 195.339844 218.816406 175.757812 201.417969 161.082031 C 182 144.710938 159.894531 141.277344 136.867188 152.140625 C 114.8125 162.558594 102.722656 180.867188 102.515625 205.375 C 102.300781 230.671875 114.421875 248.964844 136.960938 260.957031 C 145.011719 265.238281 151.902344 271.785156 159.066406 277.617188 C 166.945312 284.035156 174.53125 290.816406 183.035156 298.113281 Z M 183.035156 298.113281 " fill-opacity="1" fill-rule="nonzero"/><g clip-path="url(#449109a04d)"><path fill="#fbc927" d="M 27.292969 200.96875 C 22.214844 200.96875 17.027344 201.589844 12.109375 200.710938 C 9.632812 200.265625 7.628906 197.109375 5.421875 195.179688 C 7.253906 193.199219 9.015625 189.589844 10.941406 189.5 C 22.113281 188.949219 33.339844 188.886719 44.503906 189.53125 C 46.453125 189.644531 48.175781 193.867188 49.996094 196.191406 C 47.863281 197.789062 45.875 200.464844 43.570312 200.757812 C 38.226562 201.4375 32.726562 200.96875 27.292969 200.96875 Z M 27.292969 200.96875 " fill-opacity="1" fill-rule="nonzero"/></g><g clip-path="url(#5999c95c6f)"><path fill="#fbc927" d="M 75.164062 339.292969 C 73.738281 335.730469 70.679688 331.777344 71.644531 329.855469 C 76.882812 319.449219 82.949219 309.429688 89.21875 299.589844 C 90.113281 298.191406 94.203125 297.480469 95.878906 298.3125 C 97.492188 299.121094 99.296875 303.070312 98.617188 304.40625 C 93.125 315.082031 87.121094 325.5 81.097656 335.882812 C 80.476562 336.953125 78.679688 337.328125 75.164062 339.292969 Z M 75.164062 339.292969 " fill-opacity="1" fill-rule="nonzero"/></g><path fill="#fbc927" d="M 119.5625 97.035156 C 117.925781 99.78125 117.222656 102.542969 115.746094 103.039062 C 113.75 103.710938 109.867188 103.488281 109.046875 102.207031 C 102.640625 92.15625 96.589844 81.871094 90.9375 71.378906 C 90.136719 69.878906 91.414062 66.058594 92.941406 64.863281 C 94.335938 63.777344 98.714844 63.921875 99.480469 65.0625 C 106.460938 75.515625 112.933594 86.3125 119.5625 97.035156 Z M 119.5625 97.035156 " fill-opacity="1" fill-rule="nonzero"/><path fill="#fbc927" d="M 60.089844 253.0625 C 60.003906 261.542969 27.664062 280.570312 23.421875 276.777344 C 21.761719 275.300781 21.832031 268.449219 23.398438 267.371094 C 32.382812 261.199219 41.875 255.664062 51.640625 250.808594 C 53.773438 249.753906 57.734375 252.367188 60.089844 253.0625 Z M 60.089844 253.0625 " fill-opacity="1" fill-rule="nonzero"/><path fill="#fbc927" d="M 72.835938 140.074219 C 68.847656 141.085938 64.847656 143.523438 62.605469 142.40625 C 52.863281 137.566406 43.488281 131.914062 34.363281 125.964844 C 32.742188 124.910156 32.023438 120.773438 32.652344 118.554688 C 33.042969 117.179688 37.476562 115.367188 38.847656 116.09375 C 49.382812 121.714844 59.640625 127.847656 69.878906 134.011719 C 70.886719 134.628906 71.140625 136.496094 72.835938 140.074219 Z M 72.835938 140.074219 " fill-opacity="1" fill-rule="nonzero"/></svg>