<svg xmlns="http://www.w3.org/2000/svg" xmlns:xlink="http://www.w3.org/1999/xlink" width="250" zoomAndPan="magnify" viewBox="0 0 187.5 74.999997" height="100" preserveAspectRatio="xMidYMid meet" version="1.0"><defs><g/><clipPath id="135bf10d6b"><path d="M 8 52 L 13 52 L 13 57.925781 L 8 57.925781 Z M 8 52 " clip-rule="nonzero"/></clipPath></defs><path fill="#2dabe3" d="M 17.730469 25.722656 C 18.742188 24.558594 19.613281 23.222656 20.789062 22.257812 C 27.425781 16.789062 36.992188 18.933594 40.800781 26.644531 C 41.078125 27.210938 41.589844 27.800781 42.144531 28.074219 C 47.96875 30.945312 50.847656 36.488281 49.625 42.617188 C 48.480469 48.339844 43.546875 52.496094 37.292969 52.816406 C 34.828125 52.941406 32.320312 52.925781 29.867188 52.648438 C 22.648438 51.835938 17.882812 45.945312 18.40625 38.699219 C 18.523438 37.0625 19.621094 35.917969 20.984375 36.003906 C 22.34375 36.09375 23.285156 37.152344 23.09375 38.867188 C 22.558594 43.601562 26.167969 48.433594 32.414062 48.136719 C 34.394531 48.042969 36.398438 48.179688 38.347656 47.894531 C 42.234375 47.320312 45.039062 44.046875 45.191406 40.214844 C 45.34375 36.464844 42.695312 32.925781 38.898438 32.066406 C 37.632812 31.777344 37.207031 31.203125 36.910156 30.011719 C 35.648438 24.957031 29.902344 22.417969 25.34375 24.925781 C 24.105469 25.609375 22.925781 25.902344 21.550781 25.847656 C 20.378906 25.796875 19.203125 25.949219 18.027344 26.007812 C 17.925781 25.914062 17.828125 25.816406 17.730469 25.722656 Z M 17.730469 25.722656 " fill-opacity="1" fill-rule="nonzero"/><path fill="#fbc927" d="M 24.105469 52.351562 C 16.164062 54.535156 8.113281 47.863281 8.460938 39.546875 C 8.746094 32.707031 13.953125 27.355469 20.628906 27.046875 C 27.3125 26.734375 33.089844 31.503906 34.0625 38.222656 C 34.238281 39.429688 34.183594 40.707031 34.007812 41.921875 C 33.78125 43.476562 32.722656 44.183594 31.273438 43.992188 C 30.007812 43.828125 29.285156 42.976562 29.398438 41.425781 C 29.625 38.433594 28.957031 35.78125 26.597656 33.792969 C 23.964844 31.574219 20.96875 31.109375 17.84375 32.582031 C 14.855469 33.992188 13.214844 36.472656 13.1875 39.792969 C 13.15625 43.21875 14.800781 45.695312 17.855469 47.320312 C 18.949219 47.898438 19.882812 48.785156 20.855469 49.578125 C 21.921875 50.445312 22.953125 51.363281 24.105469 52.351562 Z M 24.105469 52.351562 " fill-opacity="1" fill-rule="nonzero"/><path fill="#fbc927" d="M 2.984375 39.195312 C 2.296875 39.195312 1.59375 39.277344 0.925781 39.160156 C 0.589844 39.101562 0.316406 38.671875 0.0195312 38.410156 C 0.265625 38.144531 0.503906 37.652344 0.765625 37.640625 C 2.28125 37.566406 3.804688 37.558594 5.320312 37.644531 C 5.582031 37.660156 5.816406 38.234375 6.0625 38.546875 C 5.773438 38.765625 5.503906 39.125 5.191406 39.164062 C 4.46875 39.257812 3.722656 39.195312 2.984375 39.195312 Z M 2.984375 39.195312 " fill-opacity="1" fill-rule="nonzero"/><g clip-path="url(#135bf10d6b)"><path fill="#fbc927" d="M 9.476562 57.929688 C 9.285156 57.445312 8.867188 56.910156 9 56.652344 C 9.710938 55.242188 10.53125 53.886719 11.382812 52.550781 C 11.503906 52.363281 12.058594 52.265625 12.285156 52.378906 C 12.503906 52.488281 12.75 53.023438 12.65625 53.203125 C 11.914062 54.652344 11.097656 56.0625 10.28125 57.46875 C 10.195312 57.613281 9.953125 57.664062 9.476562 57.929688 Z M 9.476562 57.929688 " fill-opacity="1" fill-rule="nonzero"/></g><path fill="#fbc927" d="M 15.496094 25.117188 C 15.277344 25.488281 15.179688 25.863281 14.980469 25.929688 C 14.710938 26.023438 14.183594 25.992188 14.070312 25.816406 C 13.203125 24.457031 12.382812 23.0625 11.617188 21.644531 C 11.507812 21.441406 11.679688 20.921875 11.886719 20.761719 C 12.078125 20.613281 12.671875 20.632812 12.773438 20.789062 C 13.722656 22.203125 14.597656 23.664062 15.496094 25.117188 Z M 15.496094 25.117188 " fill-opacity="1" fill-rule="nonzero"/><path fill="#fbc927" d="M 7.433594 46.25 C 7.421875 47.398438 3.035156 49.976562 2.460938 49.460938 C 2.234375 49.261719 2.242188 48.335938 2.457031 48.1875 C 3.675781 47.351562 4.960938 46.601562 6.285156 45.945312 C 6.574219 45.800781 7.113281 46.15625 7.433594 46.25 Z M 7.433594 46.25 " fill-opacity="1" fill-rule="nonzero"/><path fill="#fbc927" d="M 9.160156 30.945312 C 8.621094 31.082031 8.078125 31.414062 7.773438 31.261719 C 6.453125 30.609375 5.179688 29.84375 3.945312 29.035156 C 3.722656 28.894531 3.625 28.332031 3.710938 28.03125 C 3.765625 27.847656 4.367188 27.601562 4.550781 27.699219 C 5.980469 28.460938 7.371094 29.289062 8.757812 30.125 C 8.898438 30.210938 8.929688 30.460938 9.160156 30.945312 Z M 9.160156 30.945312 " fill-opacity="1" fill-rule="nonzero"/><g fill="#2dabe3" fill-opacity="0.4"><g transform="translate(54.014427, 42.872466)"><g><path d="M 17.8125 0 L 13.015625 0 L 11.59375 -6.53125 C 11.519531 -6.800781 11.410156 -7.34375 11.265625 -8.15625 C 11.117188 -8.96875 11.007812 -9.648438 10.9375 -10.203125 C 10.882812 -9.753906 10.796875 -9.203125 10.671875 -8.546875 C 10.546875 -7.890625 10.421875 -7.28125 10.296875 -6.71875 C 10.179688 -6.164062 9.6875 -3.925781 8.8125 0 L 4.03125 0 L 0.3125 -14.984375 L 4.21875 -14.984375 L 5.859375 -7.46875 C 6.222656 -5.8125 6.472656 -4.488281 6.609375 -3.5 C 6.703125 -4.195312 6.863281 -5.144531 7.09375 -6.34375 C 7.320312 -7.539062 7.535156 -8.535156 7.734375 -9.328125 L 9.046875 -14.984375 L 12.8125 -14.984375 L 14.09375 -9.328125 C 14.3125 -8.410156 14.53125 -7.359375 14.75 -6.171875 C 14.976562 -4.984375 15.128906 -4.09375 15.203125 -3.5 C 15.296875 -4.257812 15.539062 -5.578125 15.9375 -7.453125 L 17.59375 -14.984375 L 21.5 -14.984375 Z M 17.8125 0 "/></g></g></g><g fill="#2dabe3" fill-opacity="0.4"><g transform="translate(75.82668, 42.872466)"><g><path d="M 7 0.203125 C 5.0625 0.203125 3.554688 -0.304688 2.484375 -1.328125 C 1.410156 -2.359375 0.875 -3.828125 0.875 -5.734375 C 0.875 -7.691406 1.367188 -9.195312 2.359375 -10.25 C 3.359375 -11.300781 4.773438 -11.828125 6.609375 -11.828125 C 8.359375 -11.828125 9.707031 -11.367188 10.65625 -10.453125 C 11.613281 -9.535156 12.09375 -8.222656 12.09375 -6.515625 L 12.09375 -4.734375 L 4.9375 -4.734375 C 4.957031 -4.078125 5.191406 -3.5625 5.640625 -3.1875 C 6.085938 -2.820312 6.695312 -2.640625 7.46875 -2.640625 C 8.175781 -2.640625 8.828125 -2.707031 9.421875 -2.84375 C 10.015625 -2.976562 10.65625 -3.207031 11.34375 -3.53125 L 11.34375 -0.640625 C 10.707031 -0.328125 10.054688 -0.109375 9.390625 0.015625 C 8.722656 0.140625 7.925781 0.203125 7 0.203125 Z M 6.75 -9.09375 C 6.28125 -9.09375 5.882812 -8.941406 5.5625 -8.640625 C 5.25 -8.347656 5.066406 -7.882812 5.015625 -7.25 L 8.453125 -7.25 C 8.441406 -7.8125 8.285156 -8.257812 7.984375 -8.59375 C 7.679688 -8.925781 7.269531 -9.09375 6.75 -9.09375 Z M 6.75 -9.09375 "/></g></g></g><g fill="#2dabe3" fill-opacity="0.4"><g transform="translate(88.803331, 42.872466)"><g><path d="M 8.96875 0 L 8.1875 -1.53125 L 8.109375 -1.53125 C 7.566406 -0.863281 7.015625 -0.40625 6.453125 -0.15625 C 5.898438 0.0820312 5.175781 0.203125 4.28125 0.203125 C 3.1875 0.203125 2.328125 -0.125 1.703125 -0.78125 C 1.078125 -1.4375 0.765625 -2.359375 0.765625 -3.546875 C 0.765625 -4.785156 1.191406 -5.707031 2.046875 -6.3125 C 2.910156 -6.914062 4.160156 -7.253906 5.796875 -7.328125 L 7.734375 -7.390625 L 7.734375 -7.5625 C 7.734375 -8.519531 7.257812 -9 6.3125 -9 C 5.46875 -9 4.394531 -8.707031 3.09375 -8.125 L 1.921875 -10.78125 C 3.273438 -11.476562 4.988281 -11.828125 7.0625 -11.828125 C 8.550781 -11.828125 9.703125 -11.457031 10.515625 -10.71875 C 11.328125 -9.976562 11.734375 -8.945312 11.734375 -7.625 L 11.734375 0 Z M 5.984375 -2.625 C 6.472656 -2.625 6.890625 -2.773438 7.234375 -3.078125 C 7.578125 -3.390625 7.75 -3.789062 7.75 -4.28125 L 7.75 -5.1875 L 6.828125 -5.140625 C 5.503906 -5.097656 4.84375 -4.613281 4.84375 -3.6875 C 4.84375 -2.976562 5.222656 -2.625 5.984375 -2.625 Z M 5.984375 -2.625 "/></g></g></g><g fill="#2dabe3" fill-opacity="0.4"><g transform="translate(101.882483, 42.872466)"><g><path d="M 7.078125 -2.96875 C 7.617188 -2.96875 8.265625 -3.097656 9.015625 -3.359375 L 9.015625 -0.4375 C 8.472656 -0.207031 7.957031 -0.046875 7.46875 0.046875 C 6.976562 0.148438 6.40625 0.203125 5.75 0.203125 C 4.40625 0.203125 3.4375 -0.125 2.84375 -0.78125 C 2.25 -1.445312 1.953125 -2.460938 1.953125 -3.828125 L 1.953125 -8.609375 L 0.546875 -8.609375 L 0.546875 -10.25 L 2.328125 -11.5 L 3.359375 -13.953125 L 5.984375 -13.953125 L 5.984375 -11.625 L 8.84375 -11.625 L 8.84375 -8.609375 L 5.984375 -8.609375 L 5.984375 -4.09375 C 5.984375 -3.34375 6.347656 -2.96875 7.078125 -2.96875 Z M 7.078125 -2.96875 "/></g></g></g><g fill="#2dabe3" fill-opacity="0.4"><g transform="translate(111.538095, 42.872466)"><g><path d="M 8.703125 0 L 8.703125 -6.34375 C 8.703125 -7.894531 8.238281 -8.671875 7.3125 -8.671875 C 6.65625 -8.671875 6.171875 -8.394531 5.859375 -7.84375 C 5.546875 -7.300781 5.390625 -6.390625 5.390625 -5.109375 L 5.390625 0 L 1.390625 0 L 1.390625 -15.953125 L 5.390625 -15.953125 L 5.390625 -13.6875 C 5.390625 -12.664062 5.335938 -11.5 5.234375 -10.1875 L 5.421875 -10.1875 C 5.796875 -10.78125 6.242188 -11.203125 6.765625 -11.453125 C 7.296875 -11.703125 7.910156 -11.828125 8.609375 -11.828125 C 9.910156 -11.828125 10.921875 -11.453125 11.640625 -10.703125 C 12.359375 -9.953125 12.71875 -8.90625 12.71875 -7.5625 L 12.71875 0 Z M 8.703125 0 "/></g></g></g><g fill="#2dabe3" fill-opacity="0.4"><g transform="translate(125.601259, 42.872466)"><g><path d="M 7 0.203125 C 5.0625 0.203125 3.554688 -0.304688 2.484375 -1.328125 C 1.410156 -2.359375 0.875 -3.828125 0.875 -5.734375 C 0.875 -7.691406 1.367188 -9.195312 2.359375 -10.25 C 3.359375 -11.300781 4.773438 -11.828125 6.609375 -11.828125 C 8.359375 -11.828125 9.707031 -11.367188 10.65625 -10.453125 C 11.613281 -9.535156 12.09375 -8.222656 12.09375 -6.515625 L 12.09375 -4.734375 L 4.9375 -4.734375 C 4.957031 -4.078125 5.191406 -3.5625 5.640625 -3.1875 C 6.085938 -2.820312 6.695312 -2.640625 7.46875 -2.640625 C 8.175781 -2.640625 8.828125 -2.707031 9.421875 -2.84375 C 10.015625 -2.976562 10.65625 -3.207031 11.34375 -3.53125 L 11.34375 -0.640625 C 10.707031 -0.328125 10.054688 -0.109375 9.390625 0.015625 C 8.722656 0.140625 7.925781 0.203125 7 0.203125 Z M 6.75 -9.09375 C 6.28125 -9.09375 5.882812 -8.941406 5.5625 -8.640625 C 5.25 -8.347656 5.066406 -7.882812 5.015625 -7.25 L 8.453125 -7.25 C 8.441406 -7.8125 8.285156 -8.257812 7.984375 -8.59375 C 7.679688 -8.925781 7.269531 -9.09375 6.75 -9.09375 Z M 6.75 -9.09375 "/></g></g></g><g fill="#2dabe3" fill-opacity="0.4"><g transform="translate(138.577909, 42.872466)"><g><path d="M 8.390625 -11.828125 C 8.742188 -11.828125 9.078125 -11.796875 9.390625 -11.734375 L 9.625 -11.703125 L 9.265625 -7.921875 C 8.929688 -8.003906 8.472656 -8.046875 7.890625 -8.046875 C 7.015625 -8.046875 6.378906 -7.84375 5.984375 -7.4375 C 5.585938 -7.039062 5.390625 -6.46875 5.390625 -5.71875 L 5.390625 0 L 1.390625 0 L 1.390625 -11.625 L 4.375 -11.625 L 5 -9.765625 L 5.1875 -9.765625 C 5.519531 -10.378906 5.984375 -10.875 6.578125 -11.25 C 7.179688 -11.632812 7.785156 -11.828125 8.390625 -11.828125 Z M 8.390625 -11.828125 "/></g></g></g><g fill="#2dabe3" fill-opacity="0.4"><g transform="translate(148.428277, 42.872466)"><g/></g></g><g fill="#2dabe3" fill-opacity="1"><g transform="translate(54.014427, 42.872466)"><g><path d="M 17.8125 0 L 13.015625 0 L 11.59375 -6.53125 C 11.519531 -6.800781 11.410156 -7.34375 11.265625 -8.15625 C 11.117188 -8.96875 11.007812 -9.648438 10.9375 -10.203125 C 10.882812 -9.753906 10.796875 -9.203125 10.671875 -8.546875 C 10.546875 -7.890625 10.421875 -7.28125 10.296875 -6.71875 C 10.179688 -6.164062 9.6875 -3.925781 8.8125 0 L 4.03125 0 L 0.3125 -14.984375 L 4.21875 -14.984375 L 5.859375 -7.46875 C 6.222656 -5.8125 6.472656 -4.488281 6.609375 -3.5 C 6.703125 -4.195312 6.863281 -5.144531 7.09375 -6.34375 C 7.320312 -7.539062 7.535156 -8.535156 7.734375 -9.328125 L 9.046875 -14.984375 L 12.8125 -14.984375 L 14.09375 -9.328125 C 14.3125 -8.410156 14.53125 -7.359375 14.75 -6.171875 C 14.976562 -4.984375 15.128906 -4.09375 15.203125 -3.5 C 15.296875 -4.257812 15.539062 -5.578125 15.9375 -7.453125 L 17.59375 -14.984375 L 21.5 -14.984375 Z M 17.8125 0 "/></g></g></g><g fill="#2dabe3" fill-opacity="1"><g transform="translate(75.82668, 42.872466)"><g><path d="M 7 0.203125 C 5.0625 0.203125 3.554688 -0.304688 2.484375 -1.328125 C 1.410156 -2.359375 0.875 -3.828125 0.875 -5.734375 C 0.875 -7.691406 1.367188 -9.195312 2.359375 -10.25 C 3.359375 -11.300781 4.773438 -11.828125 6.609375 -11.828125 C 8.359375 -11.828125 9.707031 -11.367188 10.65625 -10.453125 C 11.613281 -9.535156 12.09375 -8.222656 12.09375 -6.515625 L 12.09375 -4.734375 L 4.9375 -4.734375 C 4.957031 -4.078125 5.191406 -3.5625 5.640625 -3.1875 C 6.085938 -2.820312 6.695312 -2.640625 7.46875 -2.640625 C 8.175781 -2.640625 8.828125 -2.707031 9.421875 -2.84375 C 10.015625 -2.976562 10.65625 -3.207031 11.34375 -3.53125 L 11.34375 -0.640625 C 10.707031 -0.328125 10.054688 -0.109375 9.390625 0.015625 C 8.722656 0.140625 7.925781 0.203125 7 0.203125 Z M 6.75 -9.09375 C 6.28125 -9.09375 5.882812 -8.941406 5.5625 -8.640625 C 5.25 -8.347656 5.066406 -7.882812 5.015625 -7.25 L 8.453125 -7.25 C 8.441406 -7.8125 8.285156 -8.257812 7.984375 -8.59375 C 7.679688 -8.925781 7.269531 -9.09375 6.75 -9.09375 Z M 6.75 -9.09375 "/></g></g></g><g fill="#2dabe3" fill-opacity="1"><g transform="translate(88.803331, 42.872466)"><g><path d="M 8.96875 0 L 8.1875 -1.53125 L 8.109375 -1.53125 C 7.566406 -0.863281 7.015625 -0.40625 6.453125 -0.15625 C 5.898438 0.0820312 5.175781 0.203125 4.28125 0.203125 C 3.1875 0.203125 2.328125 -0.125 1.703125 -0.78125 C 1.078125 -1.4375 0.765625 -2.359375 0.765625 -3.546875 C 0.765625 -4.785156 1.191406 -5.707031 2.046875 -6.3125 C 2.910156 -6.914062 4.160156 -7.253906 5.796875 -7.328125 L 7.734375 -7.390625 L 7.734375 -7.5625 C 7.734375 -8.519531 7.257812 -9 6.3125 -9 C 5.46875 -9 4.394531 -8.707031 3.09375 -8.125 L 1.921875 -10.78125 C 3.273438 -11.476562 4.988281 -11.828125 7.0625 -11.828125 C 8.550781 -11.828125 9.703125 -11.457031 10.515625 -10.71875 C 11.328125 -9.976562 11.734375 -8.945312 11.734375 -7.625 L 11.734375 0 Z M 5.984375 -2.625 C 6.472656 -2.625 6.890625 -2.773438 7.234375 -3.078125 C 7.578125 -3.390625 7.75 -3.789062 7.75 -4.28125 L 7.75 -5.1875 L 6.828125 -5.140625 C 5.503906 -5.097656 4.84375 -4.613281 4.84375 -3.6875 C 4.84375 -2.976562 5.222656 -2.625 5.984375 -2.625 Z M 5.984375 -2.625 "/></g></g></g><g fill="#2dabe3" fill-opacity="1"><g transform="translate(101.882483, 42.872466)"><g><path d="M 7.078125 -2.96875 C 7.617188 -2.96875 8.265625 -3.097656 9.015625 -3.359375 L 9.015625 -0.4375 C 8.472656 -0.207031 7.957031 -0.046875 7.46875 0.046875 C 6.976562 0.148438 6.40625 0.203125 5.75 0.203125 C 4.40625 0.203125 3.4375 -0.125 2.84375 -0.78125 C 2.25 -1.445312 1.953125 -2.460938 1.953125 -3.828125 L 1.953125 -8.609375 L 0.546875 -8.609375 L 0.546875 -10.25 L 2.328125 -11.5 L 3.359375 -13.953125 L 5.984375 -13.953125 L 5.984375 -11.625 L 8.84375 -11.625 L 8.84375 -8.609375 L 5.984375 -8.609375 L 5.984375 -4.09375 C 5.984375 -3.34375 6.347656 -2.96875 7.078125 -2.96875 Z M 7.078125 -2.96875 "/></g></g></g><g fill="#2dabe3" fill-opacity="1"><g transform="translate(111.538095, 42.872466)"><g><path d="M 8.703125 0 L 8.703125 -6.34375 C 8.703125 -7.894531 8.238281 -8.671875 7.3125 -8.671875 C 6.65625 -8.671875 6.171875 -8.394531 5.859375 -7.84375 C 5.546875 -7.300781 5.390625 -6.390625 5.390625 -5.109375 L 5.390625 0 L 1.390625 0 L 1.390625 -15.953125 L 5.390625 -15.953125 L 5.390625 -13.6875 C 5.390625 -12.664062 5.335938 -11.5 5.234375 -10.1875 L 5.421875 -10.1875 C 5.796875 -10.78125 6.242188 -11.203125 6.765625 -11.453125 C 7.296875 -11.703125 7.910156 -11.828125 8.609375 -11.828125 C 9.910156 -11.828125 10.921875 -11.453125 11.640625 -10.703125 C 12.359375 -9.953125 12.71875 -8.90625 12.71875 -7.5625 L 12.71875 0 Z M 8.703125 0 "/></g></g></g><g fill="#2dabe3" fill-opacity="1"><g transform="translate(125.601259, 42.872466)"><g><path d="M 7 0.203125 C 5.0625 0.203125 3.554688 -0.304688 2.484375 -1.328125 C 1.410156 -2.359375 0.875 -3.828125 0.875 -5.734375 C 0.875 -7.691406 1.367188 -9.195312 2.359375 -10.25 C 3.359375 -11.300781 4.773438 -11.828125 6.609375 -11.828125 C 8.359375 -11.828125 9.707031 -11.367188 10.65625 -10.453125 C 11.613281 -9.535156 12.09375 -8.222656 12.09375 -6.515625 L 12.09375 -4.734375 L 4.9375 -4.734375 C 4.957031 -4.078125 5.191406 -3.5625 5.640625 -3.1875 C 6.085938 -2.820312 6.695312 -2.640625 7.46875 -2.640625 C 8.175781 -2.640625 8.828125 -2.707031 9.421875 -2.84375 C 10.015625 -2.976562 10.65625 -3.207031 11.34375 -3.53125 L 11.34375 -0.640625 C 10.707031 -0.328125 10.054688 -0.109375 9.390625 0.015625 C 8.722656 0.140625 7.925781 0.203125 7 0.203125 Z M 6.75 -9.09375 C 6.28125 -9.09375 5.882812 -8.941406 5.5625 -8.640625 C 5.25 -8.347656 5.066406 -7.882812 5.015625 -7.25 L 8.453125 -7.25 C 8.441406 -7.8125 8.285156 -8.257812 7.984375 -8.59375 C 7.679688 -8.925781 7.269531 -9.09375 6.75 -9.09375 Z M 6.75 -9.09375 "/></g></g></g><g fill="#2dabe3" fill-opacity="1"><g transform="translate(138.577909, 42.872466)"><g><path d="M 8.390625 -11.828125 C 8.742188 -11.828125 9.078125 -11.796875 9.390625 -11.734375 L 9.625 -11.703125 L 9.265625 -7.921875 C 8.929688 -8.003906 8.472656 -8.046875 7.890625 -8.046875 C 7.015625 -8.046875 6.378906 -7.84375 5.984375 -7.4375 C 5.585938 -7.039062 5.390625 -6.46875 5.390625 -5.71875 L 5.390625 0 L 1.390625 0 L 1.390625 -11.625 L 4.375 -11.625 L 5 -9.765625 L 5.1875 -9.765625 C 5.519531 -10.378906 5.984375 -10.875 6.578125 -11.25 C 7.179688 -11.632812 7.785156 -11.828125 8.390625 -11.828125 Z M 8.390625 -11.828125 "/></g></g></g><g fill="#2dabe3" fill-opacity="1"><g transform="translate(148.428277, 42.872466)"><g/></g></g><g fill="#2dabe3" fill-opacity="0.4"><g transform="translate(153.885519, 42.872466)"><g><path d="M 7.640625 -8.78125 L 14.109375 -8.78125 L 14.109375 -0.703125 C 12.347656 -0.0976562 10.414062 0.203125 8.3125 0.203125 C 6 0.203125 4.210938 -0.460938 2.953125 -1.796875 C 1.691406 -3.140625 1.0625 -5.050781 1.0625 -7.53125 C 1.0625 -9.957031 1.75 -11.84375 3.125 -13.1875 C 4.507812 -14.53125 6.445312 -15.203125 8.9375 -15.203125 C 9.882812 -15.203125 10.773438 -15.113281 11.609375 -14.9375 C 12.453125 -14.757812 13.179688 -14.535156 13.796875 -14.265625 L 12.515625 -11.078125 C 11.441406 -11.617188 10.257812 -11.890625 8.96875 -11.890625 C 7.78125 -11.890625 6.863281 -11.503906 6.21875 -10.734375 C 5.570312 -9.960938 5.25 -8.863281 5.25 -7.4375 C 5.25 -6.03125 5.539062 -4.957031 6.125 -4.21875 C 6.707031 -3.488281 7.550781 -3.125 8.65625 -3.125 C 9.257812 -3.125 9.8125 -3.179688 10.3125 -3.296875 L 10.3125 -5.65625 L 7.640625 -5.65625 Z M 7.640625 -8.78125 "/></g></g></g><g fill="#2dabe3" fill-opacity="0.4"><g transform="translate(169.4247, 42.872466)"><g><path d="M 15.640625 -7.515625 C 15.640625 -4.992188 15.019531 -3.078125 13.78125 -1.765625 C 12.550781 -0.453125 10.742188 0.203125 8.359375 0.203125 C 6.003906 0.203125 4.195312 -0.453125 2.9375 -1.765625 C 1.6875 -3.085938 1.0625 -5.007812 1.0625 -7.53125 C 1.0625 -10.03125 1.6875 -11.9375 2.9375 -13.25 C 4.1875 -14.570312 6 -15.234375 8.375 -15.234375 C 10.757812 -15.234375 12.566406 -14.578125 13.796875 -13.265625 C 15.023438 -11.960938 15.640625 -10.046875 15.640625 -7.515625 Z M 5.328125 -7.515625 C 5.328125 -4.617188 6.335938 -3.171875 8.359375 -3.171875 C 9.378906 -3.171875 10.132812 -3.519531 10.625 -4.21875 C 11.125 -4.925781 11.375 -6.023438 11.375 -7.515625 C 11.375 -9.015625 11.125 -10.117188 10.625 -10.828125 C 10.125 -11.546875 9.375 -11.90625 8.375 -11.90625 C 6.34375 -11.90625 5.328125 -10.441406 5.328125 -7.515625 Z M 5.328125 -7.515625 "/></g></g></g><g fill="#ffc100" fill-opacity="1"><g transform="translate(153.885519, 42.872466)"><g><path d="M 7.640625 -8.78125 L 14.109375 -8.78125 L 14.109375 -0.703125 C 12.347656 -0.0976562 10.414062 0.203125 8.3125 0.203125 C 6 0.203125 4.210938 -0.460938 2.953125 -1.796875 C 1.691406 -3.140625 1.0625 -5.050781 1.0625 -7.53125 C 1.0625 -9.957031 1.75 -11.84375 3.125 -13.1875 C 4.507812 -14.53125 6.445312 -15.203125 8.9375 -15.203125 C 9.882812 -15.203125 10.773438 -15.113281 11.609375 -14.9375 C 12.453125 -14.757812 13.179688 -14.535156 13.796875 -14.265625 L 12.515625 -11.078125 C 11.441406 -11.617188 10.257812 -11.890625 8.96875 -11.890625 C 7.78125 -11.890625 6.863281 -11.503906 6.21875 -10.734375 C 5.570312 -9.960938 5.25 -8.863281 5.25 -7.4375 C 5.25 -6.03125 5.539062 -4.957031 6.125 -4.21875 C 6.707031 -3.488281 7.550781 -3.125 8.65625 -3.125 C 9.257812 -3.125 9.8125 -3.179688 10.3125 -3.296875 L 10.3125 -5.65625 L 7.640625 -5.65625 Z M 7.640625 -8.78125 "/></g></g></g><g fill="#ffc100" fill-opacity="1"><g transform="translate(169.4247, 42.872466)"><g><path d="M 15.640625 -7.515625 C 15.640625 -4.992188 15.019531 -3.078125 13.78125 -1.765625 C 12.550781 -0.453125 10.742188 0.203125 8.359375 0.203125 C 6.003906 0.203125 4.195312 -0.453125 2.9375 -1.765625 C 1.6875 -3.085938 1.0625 -5.007812 1.0625 -7.53125 C 1.0625 -10.03125 1.6875 -11.9375 2.9375 -13.25 C 4.1875 -14.570312 6 -15.234375 8.375 -15.234375 C 10.757812 -15.234375 12.566406 -14.578125 13.796875 -13.265625 C 15.023438 -11.960938 15.640625 -10.046875 15.640625 -7.515625 Z M 5.328125 -7.515625 C 5.328125 -4.617188 6.335938 -3.171875 8.359375 -3.171875 C 9.378906 -3.171875 10.132812 -3.519531 10.625 -4.21875 C 11.125 -4.925781 11.375 -6.023438 11.375 -7.515625 C 11.375 -9.015625 11.125 -10.117188 10.625 -10.828125 C 10.125 -11.546875 9.375 -11.90625 8.375 -11.90625 C 6.34375 -11.90625 5.328125 -10.441406 5.328125 -7.515625 Z M 5.328125 -7.515625 "/></g></g></g><g fill="#2dabe3" fill-opacity="0.4"><g transform="translate(67.263484, 50.493387)"><g><path d="M 1.34375 -2.21875 L 1.34375 0 L 0.734375 0 L 0.734375 -5.328125 L 2.1875 -5.328125 C 2.84375 -5.328125 3.328125 -5.203125 3.640625 -4.953125 C 3.953125 -4.703125 4.109375 -4.320312 4.109375 -3.8125 C 4.109375 -3.113281 3.75 -2.640625 3.03125 -2.390625 L 4.484375 0 L 3.75 0 L 2.453125 -2.21875 Z M 1.34375 -2.75 L 2.203125 -2.75 C 2.640625 -2.75 2.957031 -2.832031 3.15625 -3 C 3.363281 -3.175781 3.46875 -3.4375 3.46875 -3.78125 C 3.46875 -4.132812 3.363281 -4.390625 3.15625 -4.546875 C 2.945312 -4.703125 2.613281 -4.78125 2.15625 -4.78125 L 1.34375 -4.78125 Z M 1.34375 -2.75 "/></g></g></g><g fill="#2dabe3" fill-opacity="0.4"><g transform="translate(72.76858, 50.493387)"><g><path d="M 2.328125 0.078125 C 1.734375 0.078125 1.265625 -0.0976562 0.921875 -0.453125 C 0.585938 -0.816406 0.421875 -1.320312 0.421875 -1.96875 C 0.421875 -2.601562 0.578125 -3.109375 0.890625 -3.484375 C 1.210938 -3.867188 1.640625 -4.0625 2.171875 -4.0625 C 2.671875 -4.0625 3.066406 -3.894531 3.359375 -3.5625 C 3.648438 -3.238281 3.796875 -2.804688 3.796875 -2.265625 L 3.796875 -1.890625 L 1.046875 -1.890625 C 1.054688 -1.421875 1.171875 -1.0625 1.390625 -0.8125 C 1.617188 -0.570312 1.9375 -0.453125 2.34375 -0.453125 C 2.769531 -0.453125 3.195312 -0.539062 3.625 -0.71875 L 3.625 -0.1875 C 3.40625 -0.09375 3.203125 -0.0234375 3.015625 0.015625 C 2.828125 0.0546875 2.597656 0.078125 2.328125 0.078125 Z M 2.15625 -3.5625 C 1.84375 -3.5625 1.585938 -3.453125 1.390625 -3.234375 C 1.203125 -3.023438 1.09375 -2.738281 1.0625 -2.375 L 3.140625 -2.375 C 3.140625 -2.757812 3.054688 -3.050781 2.890625 -3.25 C 2.722656 -3.457031 2.476562 -3.5625 2.15625 -3.5625 Z M 2.15625 -3.5625 "/></g></g></g><g fill="#2dabe3" fill-opacity="0.4"><g transform="translate(77.848225, 50.493387)"><g><path d="M 3.09375 0 L 2.96875 -0.5625 L 2.9375 -0.5625 C 2.738281 -0.3125 2.539062 -0.140625 2.34375 -0.046875 C 2.144531 0.0351562 1.898438 0.078125 1.609375 0.078125 C 1.210938 0.078125 0.898438 -0.0195312 0.671875 -0.21875 C 0.453125 -0.425781 0.34375 -0.722656 0.34375 -1.109375 C 0.34375 -1.910156 0.988281 -2.332031 2.28125 -2.375 L 2.953125 -2.390625 L 2.953125 -2.640625 C 2.953125 -2.953125 2.882812 -3.179688 2.75 -3.328125 C 2.613281 -3.484375 2.398438 -3.5625 2.109375 -3.5625 C 1.773438 -3.5625 1.394531 -3.457031 0.96875 -3.25 L 0.796875 -3.71875 C 0.984375 -3.820312 1.191406 -3.898438 1.421875 -3.953125 C 1.660156 -4.015625 1.898438 -4.046875 2.140625 -4.046875 C 2.617188 -4.046875 2.972656 -3.941406 3.203125 -3.734375 C 3.429688 -3.523438 3.546875 -3.1875 3.546875 -2.71875 L 3.546875 0 Z M 1.734375 -0.421875 C 2.109375 -0.421875 2.398438 -0.523438 2.609375 -0.734375 C 2.828125 -0.941406 2.9375 -1.226562 2.9375 -1.59375 L 2.9375 -1.96875 L 2.328125 -1.9375 C 1.847656 -1.914062 1.5 -1.835938 1.28125 -1.703125 C 1.070312 -1.578125 0.96875 -1.375 0.96875 -1.09375 C 0.96875 -0.875 1.035156 -0.707031 1.171875 -0.59375 C 1.304688 -0.476562 1.492188 -0.421875 1.734375 -0.421875 Z M 1.734375 -0.421875 "/></g></g></g><g fill="#2dabe3" fill-opacity="0.4"><g transform="translate(82.891507, 50.493387)"><g><path d="M 1.25 0 L 0.640625 0 L 0.640625 -5.65625 L 1.25 -5.65625 Z M 1.25 0 "/></g></g></g><g fill="#2dabe3" fill-opacity="0.4"><g transform="translate(85.676622, 50.493387)"><g/></g></g><g fill="#2dabe3" fill-opacity="0.4"><g transform="translate(88.512645, 50.493387)"><g><path d="M 2.375 0 L 1.75 0 L 1.75 -4.765625 L 0.0625 -4.765625 L 0.0625 -5.328125 L 4.046875 -5.328125 L 4.046875 -4.765625 L 2.375 -4.765625 Z M 2.375 0 "/></g></g></g><g fill="#2dabe3" fill-opacity="0.4"><g transform="translate(93.534108, 50.493387)"><g><path d="M 1.25 0 L 0.640625 0 L 0.640625 -3.984375 L 1.25 -3.984375 Z M 0.59375 -5.0625 C 0.59375 -5.207031 0.625 -5.3125 0.6875 -5.375 C 0.757812 -5.4375 0.847656 -5.46875 0.953125 -5.46875 C 1.046875 -5.46875 1.125 -5.429688 1.1875 -5.359375 C 1.257812 -5.296875 1.296875 -5.195312 1.296875 -5.0625 C 1.296875 -4.925781 1.257812 -4.828125 1.1875 -4.765625 C 1.125 -4.703125 1.046875 -4.671875 0.953125 -4.671875 C 0.847656 -4.671875 0.757812 -4.703125 0.6875 -4.765625 C 0.625 -4.828125 0.59375 -4.925781 0.59375 -5.0625 Z M 0.59375 -5.0625 "/></g></g></g><g fill="#2dabe3" fill-opacity="0.4"><g transform="translate(96.319222, 50.493387)"><g><path d="M 5.71875 0 L 5.71875 -2.59375 C 5.71875 -2.914062 5.648438 -3.15625 5.515625 -3.3125 C 5.378906 -3.46875 5.171875 -3.546875 4.890625 -3.546875 C 4.515625 -3.546875 4.234375 -3.4375 4.046875 -3.21875 C 3.867188 -3.007812 3.78125 -2.679688 3.78125 -2.234375 L 3.78125 0 L 3.1875 0 L 3.1875 -2.59375 C 3.1875 -2.914062 3.113281 -3.15625 2.96875 -3.3125 C 2.832031 -3.46875 2.625 -3.546875 2.34375 -3.546875 C 1.957031 -3.546875 1.675781 -3.429688 1.5 -3.203125 C 1.332031 -2.984375 1.25 -2.613281 1.25 -2.09375 L 1.25 0 L 0.640625 0 L 0.640625 -3.984375 L 1.125 -3.984375 L 1.234375 -3.4375 L 1.265625 -3.4375 C 1.378906 -3.632812 1.535156 -3.785156 1.734375 -3.890625 C 1.941406 -4.003906 2.175781 -4.0625 2.4375 -4.0625 C 3.0625 -4.0625 3.46875 -3.835938 3.65625 -3.390625 L 3.6875 -3.390625 C 3.8125 -3.597656 3.984375 -3.757812 4.203125 -3.875 C 4.429688 -4 4.691406 -4.0625 4.984375 -4.0625 C 5.429688 -4.0625 5.765625 -3.941406 5.984375 -3.703125 C 6.210938 -3.472656 6.328125 -3.109375 6.328125 -2.609375 L 6.328125 0 Z M 5.71875 0 "/></g></g></g><g fill="#2dabe3" fill-opacity="0.4"><g transform="translate(104.147941, 50.493387)"><g><path d="M 2.328125 0.078125 C 1.734375 0.078125 1.265625 -0.0976562 0.921875 -0.453125 C 0.585938 -0.816406 0.421875 -1.320312 0.421875 -1.96875 C 0.421875 -2.601562 0.578125 -3.109375 0.890625 -3.484375 C 1.210938 -3.867188 1.640625 -4.0625 2.171875 -4.0625 C 2.671875 -4.0625 3.066406 -3.894531 3.359375 -3.5625 C 3.648438 -3.238281 3.796875 -2.804688 3.796875 -2.265625 L 3.796875 -1.890625 L 1.046875 -1.890625 C 1.054688 -1.421875 1.171875 -1.0625 1.390625 -0.8125 C 1.617188 -0.570312 1.9375 -0.453125 2.34375 -0.453125 C 2.769531 -0.453125 3.195312 -0.539062 3.625 -0.71875 L 3.625 -0.1875 C 3.40625 -0.09375 3.203125 -0.0234375 3.015625 0.015625 C 2.828125 0.0546875 2.597656 0.078125 2.328125 0.078125 Z M 2.15625 -3.5625 C 1.84375 -3.5625 1.585938 -3.453125 1.390625 -3.234375 C 1.203125 -3.023438 1.09375 -2.738281 1.0625 -2.375 L 3.140625 -2.375 C 3.140625 -2.757812 3.054688 -3.050781 2.890625 -3.25 C 2.722656 -3.457031 2.476562 -3.5625 2.15625 -3.5625 Z M 2.15625 -3.5625 "/></g></g></g><g fill="#2dabe3" fill-opacity="0.4"><g transform="translate(109.227586, 50.493387)"><g/></g></g><g fill="#2dabe3" fill-opacity="0.4"><g transform="translate(112.063609, 50.493387)"><g><path d="M 5.375 0 L 4.765625 0 L 3.6875 -3.5625 C 3.632812 -3.71875 3.578125 -3.914062 3.515625 -4.15625 C 3.453125 -4.394531 3.421875 -4.539062 3.421875 -4.59375 C 3.367188 -4.269531 3.285156 -3.921875 3.171875 -3.546875 L 2.125 0 L 1.515625 0 L 0.09375 -5.328125 L 0.75 -5.328125 L 1.59375 -2.03125 C 1.707031 -1.570312 1.789062 -1.15625 1.84375 -0.78125 C 1.914062 -1.226562 2.015625 -1.660156 2.140625 -2.078125 L 3.09375 -5.328125 L 3.75 -5.328125 L 4.75 -2.0625 C 4.863281 -1.675781 4.960938 -1.25 5.046875 -0.78125 C 5.085938 -1.125 5.175781 -1.546875 5.3125 -2.046875 L 6.140625 -5.328125 L 6.796875 -5.328125 Z M 5.375 0 "/></g></g></g><g fill="#2dabe3" fill-opacity="0.4"><g transform="translate(119.859599, 50.493387)"><g><path d="M 2.328125 0.078125 C 1.734375 0.078125 1.265625 -0.0976562 0.921875 -0.453125 C 0.585938 -0.816406 0.421875 -1.320312 0.421875 -1.96875 C 0.421875 -2.601562 0.578125 -3.109375 0.890625 -3.484375 C 1.210938 -3.867188 1.640625 -4.0625 2.171875 -4.0625 C 2.671875 -4.0625 3.066406 -3.894531 3.359375 -3.5625 C 3.648438 -3.238281 3.796875 -2.804688 3.796875 -2.265625 L 3.796875 -1.890625 L 1.046875 -1.890625 C 1.054688 -1.421875 1.171875 -1.0625 1.390625 -0.8125 C 1.617188 -0.570312 1.9375 -0.453125 2.34375 -0.453125 C 2.769531 -0.453125 3.195312 -0.539062 3.625 -0.71875 L 3.625 -0.1875 C 3.40625 -0.09375 3.203125 -0.0234375 3.015625 0.015625 C 2.828125 0.0546875 2.597656 0.078125 2.328125 0.078125 Z M 2.15625 -3.5625 C 1.84375 -3.5625 1.585938 -3.453125 1.390625 -3.234375 C 1.203125 -3.023438 1.09375 -2.738281 1.0625 -2.375 L 3.140625 -2.375 C 3.140625 -2.757812 3.054688 -3.050781 2.890625 -3.25 C 2.722656 -3.457031 2.476562 -3.5625 2.15625 -3.5625 Z M 2.15625 -3.5625 "/></g></g></g><g fill="#2dabe3" fill-opacity="0.4"><g transform="translate(124.939243, 50.493387)"><g><path d="M 3.09375 0 L 2.96875 -0.5625 L 2.9375 -0.5625 C 2.738281 -0.3125 2.539062 -0.140625 2.34375 -0.046875 C 2.144531 0.0351562 1.898438 0.078125 1.609375 0.078125 C 1.210938 0.078125 0.898438 -0.0195312 0.671875 -0.21875 C 0.453125 -0.425781 0.34375 -0.722656 0.34375 -1.109375 C 0.34375 -1.910156 0.988281 -2.332031 2.28125 -2.375 L 2.953125 -2.390625 L 2.953125 -2.640625 C 2.953125 -2.953125 2.882812 -3.179688 2.75 -3.328125 C 2.613281 -3.484375 2.398438 -3.5625 2.109375 -3.5625 C 1.773438 -3.5625 1.394531 -3.457031 0.96875 -3.25 L 0.796875 -3.71875 C 0.984375 -3.820312 1.191406 -3.898438 1.421875 -3.953125 C 1.660156 -4.015625 1.898438 -4.046875 2.140625 -4.046875 C 2.617188 -4.046875 2.972656 -3.941406 3.203125 -3.734375 C 3.429688 -3.523438 3.546875 -3.1875 3.546875 -2.71875 L 3.546875 0 Z M 1.734375 -0.421875 C 2.109375 -0.421875 2.398438 -0.523438 2.609375 -0.734375 C 2.828125 -0.941406 2.9375 -1.226562 2.9375 -1.59375 L 2.9375 -1.96875 L 2.328125 -1.9375 C 1.847656 -1.914062 1.5 -1.835938 1.28125 -1.703125 C 1.070312 -1.578125 0.96875 -1.375 0.96875 -1.09375 C 0.96875 -0.875 1.035156 -0.707031 1.171875 -0.59375 C 1.304688 -0.476562 1.492188 -0.421875 1.734375 -0.421875 Z M 1.734375 -0.421875 "/></g></g></g><g fill="#2dabe3" fill-opacity="0.4"><g transform="translate(129.982528, 50.493387)"><g><path d="M 1.921875 -0.421875 C 2.035156 -0.421875 2.140625 -0.425781 2.234375 -0.4375 C 2.335938 -0.457031 2.414062 -0.476562 2.46875 -0.5 L 2.46875 -0.03125 C 2.40625 0 2.3125 0.0234375 2.1875 0.046875 C 2.0625 0.0664062 1.945312 0.078125 1.84375 0.078125 C 1.070312 0.078125 0.6875 -0.328125 0.6875 -1.140625 L 0.6875 -3.515625 L 0.109375 -3.515625 L 0.109375 -3.8125 L 0.6875 -4.0625 L 0.9375 -4.90625 L 1.28125 -4.90625 L 1.28125 -3.984375 L 2.453125 -3.984375 L 2.453125 -3.515625 L 1.28125 -3.515625 L 1.28125 -1.171875 C 1.28125 -0.929688 1.335938 -0.742188 1.453125 -0.609375 C 1.566406 -0.484375 1.722656 -0.421875 1.921875 -0.421875 Z M 1.921875 -0.421875 "/></g></g></g><g fill="#2dabe3" fill-opacity="0.4"><g transform="translate(133.513092, 50.493387)"><g><path d="M 3.375 0 L 3.375 -2.578125 C 3.375 -2.898438 3.296875 -3.140625 3.140625 -3.296875 C 2.992188 -3.460938 2.765625 -3.546875 2.453125 -3.546875 C 2.035156 -3.546875 1.726562 -3.429688 1.53125 -3.203125 C 1.34375 -2.972656 1.25 -2.597656 1.25 -2.078125 L 1.25 0 L 0.640625 0 L 0.640625 -5.65625 L 1.25 -5.65625 L 1.25 -3.953125 C 1.25 -3.742188 1.238281 -3.570312 1.21875 -3.4375 L 1.25 -3.4375 C 1.375 -3.625 1.546875 -3.769531 1.765625 -3.875 C 1.984375 -3.988281 2.234375 -4.046875 2.515625 -4.046875 C 3.003906 -4.046875 3.367188 -3.929688 3.609375 -3.703125 C 3.847656 -3.472656 3.96875 -3.109375 3.96875 -2.609375 L 3.96875 0 Z M 3.375 0 "/></g></g></g><g fill="#2dabe3" fill-opacity="0.4"><g transform="translate(138.985461, 50.493387)"><g><path d="M 2.328125 0.078125 C 1.734375 0.078125 1.265625 -0.0976562 0.921875 -0.453125 C 0.585938 -0.816406 0.421875 -1.320312 0.421875 -1.96875 C 0.421875 -2.601562 0.578125 -3.109375 0.890625 -3.484375 C 1.210938 -3.867188 1.640625 -4.0625 2.171875 -4.0625 C 2.671875 -4.0625 3.066406 -3.894531 3.359375 -3.5625 C 3.648438 -3.238281 3.796875 -2.804688 3.796875 -2.265625 L 3.796875 -1.890625 L 1.046875 -1.890625 C 1.054688 -1.421875 1.171875 -1.0625 1.390625 -0.8125 C 1.617188 -0.570312 1.9375 -0.453125 2.34375 -0.453125 C 2.769531 -0.453125 3.195312 -0.539062 3.625 -0.71875 L 3.625 -0.1875 C 3.40625 -0.09375 3.203125 -0.0234375 3.015625 0.015625 C 2.828125 0.0546875 2.597656 0.078125 2.328125 0.078125 Z M 2.15625 -3.5625 C 1.84375 -3.5625 1.585938 -3.453125 1.390625 -3.234375 C 1.203125 -3.023438 1.09375 -2.738281 1.0625 -2.375 L 3.140625 -2.375 C 3.140625 -2.757812 3.054688 -3.050781 2.890625 -3.25 C 2.722656 -3.457031 2.476562 -3.5625 2.15625 -3.5625 Z M 2.15625 -3.5625 "/></g></g></g><g fill="#2dabe3" fill-opacity="0.4"><g transform="translate(144.065106, 50.493387)"><g><path d="M 2.453125 -4.0625 C 2.628906 -4.0625 2.789062 -4.046875 2.9375 -4.015625 L 2.859375 -3.453125 C 2.691406 -3.492188 2.546875 -3.515625 2.421875 -3.515625 C 2.097656 -3.515625 1.820312 -3.378906 1.59375 -3.109375 C 1.363281 -2.847656 1.25 -2.523438 1.25 -2.140625 L 1.25 0 L 0.640625 0 L 0.640625 -3.984375 L 1.140625 -3.984375 L 1.203125 -3.25 L 1.234375 -3.25 C 1.378906 -3.507812 1.554688 -3.707031 1.765625 -3.84375 C 1.972656 -3.988281 2.203125 -4.0625 2.453125 -4.0625 Z M 2.453125 -4.0625 "/></g></g></g><g fill="#2dabe3" fill-opacity="0.4"><g transform="translate(148.006576, 50.493387)"><g/></g></g><g fill="#2dabe3" fill-opacity="0.4"><g transform="translate(150.842599, 50.493387)"><g><path d="M 4.078125 0 L 3.40625 -1.6875 L 1.28125 -1.6875 L 0.625 0 L 0 0 L 2.109375 -5.34375 L 2.625 -5.34375 L 4.71875 0 Z M 3.21875 -2.25 L 2.609375 -3.890625 C 2.523438 -4.097656 2.441406 -4.359375 2.359375 -4.671875 C 2.304688 -4.429688 2.226562 -4.171875 2.125 -3.890625 L 1.5 -2.25 Z M 3.21875 -2.25 "/></g></g></g><g fill="#2dabe3" fill-opacity="0.4"><g transform="translate(156.456785, 50.493387)"><g><path d="M 2.5 0.078125 C 2.238281 0.078125 2 0.03125 1.78125 -0.0625 C 1.570312 -0.164062 1.394531 -0.316406 1.25 -0.515625 L 1.203125 -0.515625 C 1.234375 -0.273438 1.25 -0.0507812 1.25 0.15625 L 1.25 1.796875 L 0.640625 1.796875 L 0.640625 -3.984375 L 1.125 -3.984375 L 1.21875 -3.4375 L 1.25 -3.4375 C 1.40625 -3.65625 1.582031 -3.8125 1.78125 -3.90625 C 1.988281 -4.007812 2.226562 -4.0625 2.5 -4.0625 C 3.03125 -4.0625 3.4375 -3.878906 3.71875 -3.515625 C 4.007812 -3.160156 4.15625 -2.65625 4.15625 -2 C 4.15625 -1.34375 4.007812 -0.832031 3.71875 -0.46875 C 3.425781 -0.101562 3.019531 0.078125 2.5 0.078125 Z M 2.40625 -3.546875 C 2 -3.546875 1.703125 -3.429688 1.515625 -3.203125 C 1.335938 -2.984375 1.25 -2.625 1.25 -2.125 L 1.25 -2 C 1.25 -1.4375 1.34375 -1.035156 1.53125 -0.796875 C 1.71875 -0.554688 2.015625 -0.4375 2.421875 -0.4375 C 2.765625 -0.4375 3.035156 -0.570312 3.234375 -0.84375 C 3.429688 -1.125 3.53125 -1.507812 3.53125 -2 C 3.53125 -2.5 3.429688 -2.878906 3.234375 -3.140625 C 3.035156 -3.410156 2.757812 -3.546875 2.40625 -3.546875 Z M 2.40625 -3.546875 "/></g></g></g><g fill="#2dabe3" fill-opacity="0.4"><g transform="translate(161.921882, 50.493387)"><g><path d="M 2.5 0.078125 C 2.238281 0.078125 2 0.03125 1.78125 -0.0625 C 1.570312 -0.164062 1.394531 -0.316406 1.25 -0.515625 L 1.203125 -0.515625 C 1.234375 -0.273438 1.25 -0.0507812 1.25 0.15625 L 1.25 1.796875 L 0.640625 1.796875 L 0.640625 -3.984375 L 1.125 -3.984375 L 1.21875 -3.4375 L 1.25 -3.4375 C 1.40625 -3.65625 1.582031 -3.8125 1.78125 -3.90625 C 1.988281 -4.007812 2.226562 -4.0625 2.5 -4.0625 C 3.03125 -4.0625 3.4375 -3.878906 3.71875 -3.515625 C 4.007812 -3.160156 4.15625 -2.65625 4.15625 -2 C 4.15625 -1.34375 4.007812 -0.832031 3.71875 -0.46875 C 3.425781 -0.101562 3.019531 0.078125 2.5 0.078125 Z M 2.40625 -3.546875 C 2 -3.546875 1.703125 -3.429688 1.515625 -3.203125 C 1.335938 -2.984375 1.25 -2.625 1.25 -2.125 L 1.25 -2 C 1.25 -1.4375 1.34375 -1.035156 1.53125 -0.796875 C 1.71875 -0.554688 2.015625 -0.4375 2.421875 -0.4375 C 2.765625 -0.4375 3.035156 -0.570312 3.234375 -0.84375 C 3.429688 -1.125 3.53125 -1.507812 3.53125 -2 C 3.53125 -2.5 3.429688 -2.878906 3.234375 -3.140625 C 3.035156 -3.410156 2.757812 -3.546875 2.40625 -3.546875 Z M 2.40625 -3.546875 "/></g></g></g><g fill="#2dabe3" fill-opacity="1"><g transform="translate(67.263484, 50.493387)"><g><path d="M 1.34375 -2.21875 L 1.34375 0 L 0.734375 0 L 0.734375 -5.328125 L 2.1875 -5.328125 C 2.84375 -5.328125 3.328125 -5.203125 3.640625 -4.953125 C 3.953125 -4.703125 4.109375 -4.320312 4.109375 -3.8125 C 4.109375 -3.113281 3.75 -2.640625 3.03125 -2.390625 L 4.484375 0 L 3.75 0 L 2.453125 -2.21875 Z M 1.34375 -2.75 L 2.203125 -2.75 C 2.640625 -2.75 2.957031 -2.832031 3.15625 -3 C 3.363281 -3.175781 3.46875 -3.4375 3.46875 -3.78125 C 3.46875 -4.132812 3.363281 -4.390625 3.15625 -4.546875 C 2.945312 -4.703125 2.613281 -4.78125 2.15625 -4.78125 L 1.34375 -4.78125 Z M 1.34375 -2.75 "/></g></g></g><g fill="#2dabe3" fill-opacity="1"><g transform="translate(72.76858, 50.493387)"><g><path d="M 2.328125 0.078125 C 1.734375 0.078125 1.265625 -0.0976562 0.921875 -0.453125 C 0.585938 -0.816406 0.421875 -1.320312 0.421875 -1.96875 C 0.421875 -2.601562 0.578125 -3.109375 0.890625 -3.484375 C 1.210938 -3.867188 1.640625 -4.0625 2.171875 -4.0625 C 2.671875 -4.0625 3.066406 -3.894531 3.359375 -3.5625 C 3.648438 -3.238281 3.796875 -2.804688 3.796875 -2.265625 L 3.796875 -1.890625 L 1.046875 -1.890625 C 1.054688 -1.421875 1.171875 -1.0625 1.390625 -0.8125 C 1.617188 -0.570312 1.9375 -0.453125 2.34375 -0.453125 C 2.769531 -0.453125 3.195312 -0.539062 3.625 -0.71875 L 3.625 -0.1875 C 3.40625 -0.09375 3.203125 -0.0234375 3.015625 0.015625 C 2.828125 0.0546875 2.597656 0.078125 2.328125 0.078125 Z M 2.15625 -3.5625 C 1.84375 -3.5625 1.585938 -3.453125 1.390625 -3.234375 C 1.203125 -3.023438 1.09375 -2.738281 1.0625 -2.375 L 3.140625 -2.375 C 3.140625 -2.757812 3.054688 -3.050781 2.890625 -3.25 C 2.722656 -3.457031 2.476562 -3.5625 2.15625 -3.5625 Z M 2.15625 -3.5625 "/></g></g></g><g fill="#2dabe3" fill-opacity="1"><g transform="translate(77.848225, 50.493387)"><g><path d="M 3.09375 0 L 2.96875 -0.5625 L 2.9375 -0.5625 C 2.738281 -0.3125 2.539062 -0.140625 2.34375 -0.046875 C 2.144531 0.0351562 1.898438 0.078125 1.609375 0.078125 C 1.210938 0.078125 0.898438 -0.0195312 0.671875 -0.21875 C 0.453125 -0.425781 0.34375 -0.722656 0.34375 -1.109375 C 0.34375 -1.910156 0.988281 -2.332031 2.28125 -2.375 L 2.953125 -2.390625 L 2.953125 -2.640625 C 2.953125 -2.953125 2.882812 -3.179688 2.75 -3.328125 C 2.613281 -3.484375 2.398438 -3.5625 2.109375 -3.5625 C 1.773438 -3.5625 1.394531 -3.457031 0.96875 -3.25 L 0.796875 -3.71875 C 0.984375 -3.820312 1.191406 -3.898438 1.421875 -3.953125 C 1.660156 -4.015625 1.898438 -4.046875 2.140625 -4.046875 C 2.617188 -4.046875 2.972656 -3.941406 3.203125 -3.734375 C 3.429688 -3.523438 3.546875 -3.1875 3.546875 -2.71875 L 3.546875 0 Z M 1.734375 -0.421875 C 2.109375 -0.421875 2.398438 -0.523438 2.609375 -0.734375 C 2.828125 -0.941406 2.9375 -1.226562 2.9375 -1.59375 L 2.9375 -1.96875 L 2.328125 -1.9375 C 1.847656 -1.914062 1.5 -1.835938 1.28125 -1.703125 C 1.070312 -1.578125 0.96875 -1.375 0.96875 -1.09375 C 0.96875 -0.875 1.035156 -0.707031 1.171875 -0.59375 C 1.304688 -0.476562 1.492188 -0.421875 1.734375 -0.421875 Z M 1.734375 -0.421875 "/></g></g></g><g fill="#2dabe3" fill-opacity="1"><g transform="translate(82.891507, 50.493387)"><g><path d="M 1.25 0 L 0.640625 0 L 0.640625 -5.65625 L 1.25 -5.65625 Z M 1.25 0 "/></g></g></g><g fill="#2dabe3" fill-opacity="1"><g transform="translate(85.676622, 50.493387)"><g/></g></g><g fill="#2dabe3" fill-opacity="1"><g transform="translate(88.512645, 50.493387)"><g><path d="M 2.375 0 L 1.75 0 L 1.75 -4.765625 L 0.0625 -4.765625 L 0.0625 -5.328125 L 4.046875 -5.328125 L 4.046875 -4.765625 L 2.375 -4.765625 Z M 2.375 0 "/></g></g></g><g fill="#2dabe3" fill-opacity="1"><g transform="translate(93.534108, 50.493387)"><g><path d="M 1.25 0 L 0.640625 0 L 0.640625 -3.984375 L 1.25 -3.984375 Z M 0.59375 -5.0625 C 0.59375 -5.207031 0.625 -5.3125 0.6875 -5.375 C 0.757812 -5.4375 0.847656 -5.46875 0.953125 -5.46875 C 1.046875 -5.46875 1.125 -5.429688 1.1875 -5.359375 C 1.257812 -5.296875 1.296875 -5.195312 1.296875 -5.0625 C 1.296875 -4.925781 1.257812 -4.828125 1.1875 -4.765625 C 1.125 -4.703125 1.046875 -4.671875 0.953125 -4.671875 C 0.847656 -4.671875 0.757812 -4.703125 0.6875 -4.765625 C 0.625 -4.828125 0.59375 -4.925781 0.59375 -5.0625 Z M 0.59375 -5.0625 "/></g></g></g><g fill="#2dabe3" fill-opacity="1"><g transform="translate(96.319222, 50.493387)"><g><path d="M 5.71875 0 L 5.71875 -2.59375 C 5.71875 -2.914062 5.648438 -3.15625 5.515625 -3.3125 C 5.378906 -3.46875 5.171875 -3.546875 4.890625 -3.546875 C 4.515625 -3.546875 4.234375 -3.4375 4.046875 -3.21875 C 3.867188 -3.007812 3.78125 -2.679688 3.78125 -2.234375 L 3.78125 0 L 3.1875 0 L 3.1875 -2.59375 C 3.1875 -2.914062 3.113281 -3.15625 2.96875 -3.3125 C 2.832031 -3.46875 2.625 -3.546875 2.34375 -3.546875 C 1.957031 -3.546875 1.675781 -3.429688 1.5 -3.203125 C 1.332031 -2.984375 1.25 -2.613281 1.25 -2.09375 L 1.25 0 L 0.640625 0 L 0.640625 -3.984375 L 1.125 -3.984375 L 1.234375 -3.4375 L 1.265625 -3.4375 C 1.378906 -3.632812 1.535156 -3.785156 1.734375 -3.890625 C 1.941406 -4.003906 2.175781 -4.0625 2.4375 -4.0625 C 3.0625 -4.0625 3.46875 -3.835938 3.65625 -3.390625 L 3.6875 -3.390625 C 3.8125 -3.597656 3.984375 -3.757812 4.203125 -3.875 C 4.429688 -4 4.691406 -4.0625 4.984375 -4.0625 C 5.429688 -4.0625 5.765625 -3.941406 5.984375 -3.703125 C 6.210938 -3.472656 6.328125 -3.109375 6.328125 -2.609375 L 6.328125 0 Z M 5.71875 0 "/></g></g></g><g fill="#2dabe3" fill-opacity="1"><g transform="translate(104.147941, 50.493387)"><g><path d="M 2.328125 0.078125 C 1.734375 0.078125 1.265625 -0.0976562 0.921875 -0.453125 C 0.585938 -0.816406 0.421875 -1.320312 0.421875 -1.96875 C 0.421875 -2.601562 0.578125 -3.109375 0.890625 -3.484375 C 1.210938 -3.867188 1.640625 -4.0625 2.171875 -4.0625 C 2.671875 -4.0625 3.066406 -3.894531 3.359375 -3.5625 C 3.648438 -3.238281 3.796875 -2.804688 3.796875 -2.265625 L 3.796875 -1.890625 L 1.046875 -1.890625 C 1.054688 -1.421875 1.171875 -1.0625 1.390625 -0.8125 C 1.617188 -0.570312 1.9375 -0.453125 2.34375 -0.453125 C 2.769531 -0.453125 3.195312 -0.539062 3.625 -0.71875 L 3.625 -0.1875 C 3.40625 -0.09375 3.203125 -0.0234375 3.015625 0.015625 C 2.828125 0.0546875 2.597656 0.078125 2.328125 0.078125 Z M 2.15625 -3.5625 C 1.84375 -3.5625 1.585938 -3.453125 1.390625 -3.234375 C 1.203125 -3.023438 1.09375 -2.738281 1.0625 -2.375 L 3.140625 -2.375 C 3.140625 -2.757812 3.054688 -3.050781 2.890625 -3.25 C 2.722656 -3.457031 2.476562 -3.5625 2.15625 -3.5625 Z M 2.15625 -3.5625 "/></g></g></g><g fill="#2dabe3" fill-opacity="1"><g transform="translate(109.227586, 50.493387)"><g/></g></g><g fill="#2dabe3" fill-opacity="1"><g transform="translate(112.063609, 50.493387)"><g><path d="M 5.375 0 L 4.765625 0 L 3.6875 -3.5625 C 3.632812 -3.71875 3.578125 -3.914062 3.515625 -4.15625 C 3.453125 -4.394531 3.421875 -4.539062 3.421875 -4.59375 C 3.367188 -4.269531 3.285156 -3.921875 3.171875 -3.546875 L 2.125 0 L 1.515625 0 L 0.09375 -5.328125 L 0.75 -5.328125 L 1.59375 -2.03125 C 1.707031 -1.570312 1.789062 -1.15625 1.84375 -0.78125 C 1.914062 -1.226562 2.015625 -1.660156 2.140625 -2.078125 L 3.09375 -5.328125 L 3.75 -5.328125 L 4.75 -2.0625 C 4.863281 -1.675781 4.960938 -1.25 5.046875 -0.78125 C 5.085938 -1.125 5.175781 -1.546875 5.3125 -2.046875 L 6.140625 -5.328125 L 6.796875 -5.328125 Z M 5.375 0 "/></g></g></g><g fill="#2dabe3" fill-opacity="1"><g transform="translate(119.859599, 50.493387)"><g><path d="M 2.328125 0.078125 C 1.734375 0.078125 1.265625 -0.0976562 0.921875 -0.453125 C 0.585938 -0.816406 0.421875 -1.320312 0.421875 -1.96875 C 0.421875 -2.601562 0.578125 -3.109375 0.890625 -3.484375 C 1.210938 -3.867188 1.640625 -4.0625 2.171875 -4.0625 C 2.671875 -4.0625 3.066406 -3.894531 3.359375 -3.5625 C 3.648438 -3.238281 3.796875 -2.804688 3.796875 -2.265625 L 3.796875 -1.890625 L 1.046875 -1.890625 C 1.054688 -1.421875 1.171875 -1.0625 1.390625 -0.8125 C 1.617188 -0.570312 1.9375 -0.453125 2.34375 -0.453125 C 2.769531 -0.453125 3.195312 -0.539062 3.625 -0.71875 L 3.625 -0.1875 C 3.40625 -0.09375 3.203125 -0.0234375 3.015625 0.015625 C 2.828125 0.0546875 2.597656 0.078125 2.328125 0.078125 Z M 2.15625 -3.5625 C 1.84375 -3.5625 1.585938 -3.453125 1.390625 -3.234375 C 1.203125 -3.023438 1.09375 -2.738281 1.0625 -2.375 L 3.140625 -2.375 C 3.140625 -2.757812 3.054688 -3.050781 2.890625 -3.25 C 2.722656 -3.457031 2.476562 -3.5625 2.15625 -3.5625 Z M 2.15625 -3.5625 "/></g></g></g><g fill="#2dabe3" fill-opacity="1"><g transform="translate(124.939243, 50.493387)"><g><path d="M 3.09375 0 L 2.96875 -0.5625 L 2.9375 -0.5625 C 2.738281 -0.3125 2.539062 -0.140625 2.34375 -0.046875 C 2.144531 0.0351562 1.898438 0.078125 1.609375 0.078125 C 1.210938 0.078125 0.898438 -0.0195312 0.671875 -0.21875 C 0.453125 -0.425781 0.34375 -0.722656 0.34375 -1.109375 C 0.34375 -1.910156 0.988281 -2.332031 2.28125 -2.375 L 2.953125 -2.390625 L 2.953125 -2.640625 C 2.953125 -2.953125 2.882812 -3.179688 2.75 -3.328125 C 2.613281 -3.484375 2.398438 -3.5625 2.109375 -3.5625 C 1.773438 -3.5625 1.394531 -3.457031 0.96875 -3.25 L 0.796875 -3.71875 C 0.984375 -3.820312 1.191406 -3.898438 1.421875 -3.953125 C 1.660156 -4.015625 1.898438 -4.046875 2.140625 -4.046875 C 2.617188 -4.046875 2.972656 -3.941406 3.203125 -3.734375 C 3.429688 -3.523438 3.546875 -3.1875 3.546875 -2.71875 L 3.546875 0 Z M 1.734375 -0.421875 C 2.109375 -0.421875 2.398438 -0.523438 2.609375 -0.734375 C 2.828125 -0.941406 2.9375 -1.226562 2.9375 -1.59375 L 2.9375 -1.96875 L 2.328125 -1.9375 C 1.847656 -1.914062 1.5 -1.835938 1.28125 -1.703125 C 1.070312 -1.578125 0.96875 -1.375 0.96875 -1.09375 C 0.96875 -0.875 1.035156 -0.707031 1.171875 -0.59375 C 1.304688 -0.476562 1.492188 -0.421875 1.734375 -0.421875 Z M 1.734375 -0.421875 "/></g></g></g><g fill="#2dabe3" fill-opacity="1"><g transform="translate(129.982528, 50.493387)"><g><path d="M 1.921875 -0.421875 C 2.035156 -0.421875 2.140625 -0.425781 2.234375 -0.4375 C 2.335938 -0.457031 2.414062 -0.476562 2.46875 -0.5 L 2.46875 -0.03125 C 2.40625 0 2.3125 0.0234375 2.1875 0.046875 C 2.0625 0.0664062 1.945312 0.078125 1.84375 0.078125 C 1.070312 0.078125 0.6875 -0.328125 0.6875 -1.140625 L 0.6875 -3.515625 L 0.109375 -3.515625 L 0.109375 -3.8125 L 0.6875 -4.0625 L 0.9375 -4.90625 L 1.28125 -4.90625 L 1.28125 -3.984375 L 2.453125 -3.984375 L 2.453125 -3.515625 L 1.28125 -3.515625 L 1.28125 -1.171875 C 1.28125 -0.929688 1.335938 -0.742188 1.453125 -0.609375 C 1.566406 -0.484375 1.722656 -0.421875 1.921875 -0.421875 Z M 1.921875 -0.421875 "/></g></g></g><g fill="#2dabe3" fill-opacity="1"><g transform="translate(133.513092, 50.493387)"><g><path d="M 3.375 0 L 3.375 -2.578125 C 3.375 -2.898438 3.296875 -3.140625 3.140625 -3.296875 C 2.992188 -3.460938 2.765625 -3.546875 2.453125 -3.546875 C 2.035156 -3.546875 1.726562 -3.429688 1.53125 -3.203125 C 1.34375 -2.972656 1.25 -2.597656 1.25 -2.078125 L 1.25 0 L 0.640625 0 L 0.640625 -5.65625 L 1.25 -5.65625 L 1.25 -3.953125 C 1.25 -3.742188 1.238281 -3.570312 1.21875 -3.4375 L 1.25 -3.4375 C 1.375 -3.625 1.546875 -3.769531 1.765625 -3.875 C 1.984375 -3.988281 2.234375 -4.046875 2.515625 -4.046875 C 3.003906 -4.046875 3.367188 -3.929688 3.609375 -3.703125 C 3.847656 -3.472656 3.96875 -3.109375 3.96875 -2.609375 L 3.96875 0 Z M 3.375 0 "/></g></g></g><g fill="#2dabe3" fill-opacity="1"><g transform="translate(138.985461, 50.493387)"><g><path d="M 2.328125 0.078125 C 1.734375 0.078125 1.265625 -0.0976562 0.921875 -0.453125 C 0.585938 -0.816406 0.421875 -1.320312 0.421875 -1.96875 C 0.421875 -2.601562 0.578125 -3.109375 0.890625 -3.484375 C 1.210938 -3.867188 1.640625 -4.0625 2.171875 -4.0625 C 2.671875 -4.0625 3.066406 -3.894531 3.359375 -3.5625 C 3.648438 -3.238281 3.796875 -2.804688 3.796875 -2.265625 L 3.796875 -1.890625 L 1.046875 -1.890625 C 1.054688 -1.421875 1.171875 -1.0625 1.390625 -0.8125 C 1.617188 -0.570312 1.9375 -0.453125 2.34375 -0.453125 C 2.769531 -0.453125 3.195312 -0.539062 3.625 -0.71875 L 3.625 -0.1875 C 3.40625 -0.09375 3.203125 -0.0234375 3.015625 0.015625 C 2.828125 0.0546875 2.597656 0.078125 2.328125 0.078125 Z M 2.15625 -3.5625 C 1.84375 -3.5625 1.585938 -3.453125 1.390625 -3.234375 C 1.203125 -3.023438 1.09375 -2.738281 1.0625 -2.375 L 3.140625 -2.375 C 3.140625 -2.757812 3.054688 -3.050781 2.890625 -3.25 C 2.722656 -3.457031 2.476562 -3.5625 2.15625 -3.5625 Z M 2.15625 -3.5625 "/></g></g></g><g fill="#2dabe3" fill-opacity="1"><g transform="translate(144.065106, 50.493387)"><g><path d="M 2.453125 -4.0625 C 2.628906 -4.0625 2.789062 -4.046875 2.9375 -4.015625 L 2.859375 -3.453125 C 2.691406 -3.492188 2.546875 -3.515625 2.421875 -3.515625 C 2.097656 -3.515625 1.820312 -3.378906 1.59375 -3.109375 C 1.363281 -2.847656 1.25 -2.523438 1.25 -2.140625 L 1.25 0 L 0.640625 0 L 0.640625 -3.984375 L 1.140625 -3.984375 L 1.203125 -3.25 L 1.234375 -3.25 C 1.378906 -3.507812 1.554688 -3.707031 1.765625 -3.84375 C 1.972656 -3.988281 2.203125 -4.0625 2.453125 -4.0625 Z M 2.453125 -4.0625 "/></g></g></g><g fill="#2dabe3" fill-opacity="1"><g transform="translate(148.006576, 50.493387)"><g/></g></g><g fill="#2dabe3" fill-opacity="1"><g transform="translate(150.842599, 50.493387)"><g><path d="M 4.078125 0 L 3.40625 -1.6875 L 1.28125 -1.6875 L 0.625 0 L 0 0 L 2.109375 -5.34375 L 2.625 -5.34375 L 4.71875 0 Z M 3.21875 -2.25 L 2.609375 -3.890625 C 2.523438 -4.097656 2.441406 -4.359375 2.359375 -4.671875 C 2.304688 -4.429688 2.226562 -4.171875 2.125 -3.890625 L 1.5 -2.25 Z M 3.21875 -2.25 "/></g></g></g><g fill="#2dabe3" fill-opacity="1"><g transform="translate(156.456785, 50.493387)"><g><path d="M 2.5 0.078125 C 2.238281 0.078125 2 0.03125 1.78125 -0.0625 C 1.570312 -0.164062 1.394531 -0.316406 1.25 -0.515625 L 1.203125 -0.515625 C 1.234375 -0.273438 1.25 -0.0507812 1.25 0.15625 L 1.25 1.796875 L 0.640625 1.796875 L 0.640625 -3.984375 L 1.125 -3.984375 L 1.21875 -3.4375 L 1.25 -3.4375 C 1.40625 -3.65625 1.582031 -3.8125 1.78125 -3.90625 C 1.988281 -4.007812 2.226562 -4.0625 2.5 -4.0625 C 3.03125 -4.0625 3.4375 -3.878906 3.71875 -3.515625 C 4.007812 -3.160156 4.15625 -2.65625 4.15625 -2 C 4.15625 -1.34375 4.007812 -0.832031 3.71875 -0.46875 C 3.425781 -0.101562 3.019531 0.078125 2.5 0.078125 Z M 2.40625 -3.546875 C 2 -3.546875 1.703125 -3.429688 1.515625 -3.203125 C 1.335938 -2.984375 1.25 -2.625 1.25 -2.125 L 1.25 -2 C 1.25 -1.4375 1.34375 -1.035156 1.53125 -0.796875 C 1.71875 -0.554688 2.015625 -0.4375 2.421875 -0.4375 C 2.765625 -0.4375 3.035156 -0.570312 3.234375 -0.84375 C 3.429688 -1.125 3.53125 -1.507812 3.53125 -2 C 3.53125 -2.5 3.429688 -2.878906 3.234375 -3.140625 C 3.035156 -3.410156 2.757812 -3.546875 2.40625 -3.546875 Z M 2.40625 -3.546875 "/></g></g></g><g fill="#2dabe3" fill-opacity="1"><g transform="translate(161.921882, 50.493387)"><g><path d="M 2.5 0.078125 C 2.238281 0.078125 2 0.03125 1.78125 -0.0625 C 1.570312 -0.164062 1.394531 -0.316406 1.25 -0.515625 L 1.203125 -0.515625 C 1.234375 -0.273438 1.25 -0.0507812 1.25 0.15625 L 1.25 1.796875 L 0.640625 1.796875 L 0.640625 -3.984375 L 1.125 -3.984375 L 1.21875 -3.4375 L 1.25 -3.4375 C 1.40625 -3.65625 1.582031 -3.8125 1.78125 -3.90625 C 1.988281 -4.007812 2.226562 -4.0625 2.5 -4.0625 C 3.03125 -4.0625 3.4375 -3.878906 3.71875 -3.515625 C 4.007812 -3.160156 4.15625 -2.65625 4.15625 -2 C 4.15625 -1.34375 4.007812 -0.832031 3.71875 -0.46875 C 3.425781 -0.101562 3.019531 0.078125 2.5 0.078125 Z M 2.40625 -3.546875 C 2 -3.546875 1.703125 -3.429688 1.515625 -3.203125 C 1.335938 -2.984375 1.25 -2.625 1.25 -2.125 L 1.25 -2 C 1.25 -1.4375 1.34375 -1.035156 1.53125 -0.796875 C 1.71875 -0.554688 2.015625 -0.4375 2.421875 -0.4375 C 2.765625 -0.4375 3.035156 -0.570312 3.234375 -0.84375 C 3.429688 -1.125 3.53125 -1.507812 3.53125 -2 C 3.53125 -2.5 3.429688 -2.878906 3.234375 -3.140625 C 3.035156 -3.410156 2.757812 -3.546875 2.40625 -3.546875 Z M 2.40625 -3.546875 "/></g></g></g></svg>